G04 EAGLE Gerber RS-274X export*
G75*
%MOMM*%
%FSLAX34Y34*%
%LPD*%
%INSilkscreen Bottom*%
%IPPOS*%
%AMOC8*
5,1,8,0,0,1.08239X$1,22.5*%
G01*
%ADD10C,0.101600*%


D10*
X357094Y466149D02*
X355146Y466149D01*
X355146Y459658D01*
X359041Y459658D01*
X359140Y459660D01*
X359240Y459666D01*
X359339Y459675D01*
X359437Y459688D01*
X359535Y459705D01*
X359633Y459726D01*
X359729Y459751D01*
X359824Y459779D01*
X359918Y459811D01*
X360011Y459846D01*
X360103Y459885D01*
X360193Y459928D01*
X360281Y459973D01*
X360368Y460023D01*
X360452Y460075D01*
X360535Y460131D01*
X360615Y460189D01*
X360693Y460251D01*
X360768Y460316D01*
X360841Y460384D01*
X360911Y460454D01*
X360979Y460527D01*
X361044Y460602D01*
X361106Y460680D01*
X361164Y460760D01*
X361220Y460843D01*
X361272Y460927D01*
X361322Y461014D01*
X361367Y461102D01*
X361410Y461192D01*
X361449Y461284D01*
X361484Y461377D01*
X361516Y461471D01*
X361544Y461566D01*
X361569Y461662D01*
X361590Y461760D01*
X361607Y461858D01*
X361620Y461956D01*
X361629Y462055D01*
X361635Y462155D01*
X361637Y462254D01*
X361638Y462254D02*
X361638Y468746D01*
X361637Y468746D02*
X361635Y468845D01*
X361629Y468945D01*
X361620Y469044D01*
X361607Y469142D01*
X361590Y469240D01*
X361569Y469338D01*
X361544Y469434D01*
X361516Y469529D01*
X361484Y469623D01*
X361449Y469716D01*
X361410Y469808D01*
X361367Y469898D01*
X361322Y469986D01*
X361272Y470073D01*
X361220Y470157D01*
X361164Y470240D01*
X361106Y470320D01*
X361044Y470398D01*
X360979Y470473D01*
X360911Y470546D01*
X360841Y470616D01*
X360768Y470684D01*
X360693Y470749D01*
X360615Y470811D01*
X360535Y470869D01*
X360452Y470925D01*
X360368Y470977D01*
X360281Y471027D01*
X360193Y471072D01*
X360103Y471115D01*
X360011Y471154D01*
X359918Y471189D01*
X359824Y471221D01*
X359729Y471249D01*
X359633Y471274D01*
X359535Y471295D01*
X359437Y471312D01*
X359339Y471325D01*
X359240Y471334D01*
X359140Y471340D01*
X359041Y471342D01*
X355146Y471342D01*
X349446Y471342D02*
X349446Y459658D01*
X342954Y459658D02*
X349446Y471342D01*
X342954Y471342D02*
X342954Y459658D01*
X337254Y459658D02*
X337254Y471342D01*
X334008Y471342D01*
X333895Y471340D01*
X333782Y471334D01*
X333669Y471324D01*
X333556Y471310D01*
X333444Y471293D01*
X333333Y471271D01*
X333223Y471246D01*
X333113Y471216D01*
X333005Y471183D01*
X332898Y471146D01*
X332792Y471106D01*
X332688Y471061D01*
X332585Y471013D01*
X332484Y470962D01*
X332385Y470907D01*
X332288Y470849D01*
X332193Y470787D01*
X332100Y470722D01*
X332010Y470654D01*
X331922Y470583D01*
X331836Y470508D01*
X331753Y470431D01*
X331673Y470351D01*
X331596Y470268D01*
X331521Y470182D01*
X331450Y470094D01*
X331382Y470004D01*
X331317Y469911D01*
X331255Y469816D01*
X331197Y469719D01*
X331142Y469620D01*
X331091Y469519D01*
X331043Y469416D01*
X330998Y469312D01*
X330958Y469206D01*
X330921Y469099D01*
X330888Y468991D01*
X330858Y468881D01*
X330833Y468771D01*
X330811Y468660D01*
X330794Y468548D01*
X330780Y468435D01*
X330770Y468322D01*
X330764Y468209D01*
X330762Y468096D01*
X330762Y462904D01*
X330764Y462791D01*
X330770Y462678D01*
X330780Y462565D01*
X330794Y462452D01*
X330811Y462340D01*
X330833Y462229D01*
X330858Y462119D01*
X330888Y462009D01*
X330921Y461901D01*
X330958Y461794D01*
X330998Y461688D01*
X331043Y461584D01*
X331091Y461481D01*
X331142Y461380D01*
X331197Y461281D01*
X331255Y461184D01*
X331317Y461089D01*
X331382Y460996D01*
X331450Y460906D01*
X331521Y460818D01*
X331596Y460732D01*
X331673Y460649D01*
X331753Y460569D01*
X331836Y460492D01*
X331922Y460417D01*
X332010Y460346D01*
X332100Y460278D01*
X332193Y460213D01*
X332288Y460151D01*
X332385Y460093D01*
X332484Y460038D01*
X332585Y459987D01*
X332688Y459939D01*
X332792Y459894D01*
X332898Y459854D01*
X333005Y459817D01*
X333113Y459784D01*
X333223Y459754D01*
X333333Y459729D01*
X333444Y459707D01*
X333556Y459690D01*
X333669Y459676D01*
X333782Y459666D01*
X333895Y459660D01*
X334008Y459658D01*
X337254Y459658D01*
X463370Y374915D02*
X464036Y373085D01*
X463370Y374915D02*
X457270Y372695D01*
X458602Y369035D01*
X458603Y369035D02*
X458638Y368942D01*
X458678Y368851D01*
X458720Y368761D01*
X458767Y368673D01*
X458816Y368587D01*
X458869Y368503D01*
X458925Y368420D01*
X458984Y368340D01*
X459046Y368263D01*
X459111Y368188D01*
X459179Y368115D01*
X459250Y368045D01*
X459323Y367978D01*
X459399Y367913D01*
X459477Y367852D01*
X459558Y367793D01*
X459640Y367738D01*
X459725Y367686D01*
X459812Y367637D01*
X459900Y367592D01*
X459990Y367550D01*
X460082Y367511D01*
X460175Y367476D01*
X460269Y367445D01*
X460365Y367417D01*
X460461Y367393D01*
X460559Y367372D01*
X460657Y367356D01*
X460755Y367343D01*
X460854Y367334D01*
X460954Y367329D01*
X461053Y367327D01*
X461153Y367329D01*
X461252Y367335D01*
X461351Y367345D01*
X461449Y367359D01*
X461547Y367377D01*
X461644Y367398D01*
X461741Y367423D01*
X461836Y367451D01*
X461930Y367484D01*
X461930Y367483D02*
X468030Y369703D01*
X468030Y369704D02*
X468123Y369739D01*
X468214Y369779D01*
X468304Y369821D01*
X468392Y369868D01*
X468478Y369917D01*
X468562Y369970D01*
X468645Y370026D01*
X468725Y370085D01*
X468802Y370147D01*
X468877Y370212D01*
X468950Y370280D01*
X469020Y370351D01*
X469087Y370424D01*
X469152Y370500D01*
X469213Y370578D01*
X469272Y370659D01*
X469327Y370741D01*
X469379Y370826D01*
X469428Y370913D01*
X469473Y371001D01*
X469515Y371091D01*
X469554Y371183D01*
X469589Y371276D01*
X469620Y371370D01*
X469648Y371466D01*
X469672Y371562D01*
X469693Y371660D01*
X469709Y371758D01*
X469722Y371856D01*
X469731Y371955D01*
X469736Y372055D01*
X469738Y372154D01*
X469736Y372253D01*
X469730Y372353D01*
X469720Y372452D01*
X469706Y372550D01*
X469688Y372648D01*
X469667Y372745D01*
X469642Y372842D01*
X469614Y372937D01*
X469581Y373031D01*
X469582Y373031D02*
X468250Y376691D01*
X466300Y382048D02*
X455320Y378052D01*
X453100Y384152D02*
X466300Y382048D01*
X464080Y388148D02*
X453100Y384152D01*
X451151Y389509D02*
X462130Y393505D01*
X461020Y396555D01*
X460980Y396661D01*
X460935Y396765D01*
X460887Y396868D01*
X460836Y396969D01*
X460781Y397068D01*
X460723Y397165D01*
X460661Y397260D01*
X460596Y397353D01*
X460528Y397443D01*
X460457Y397531D01*
X460382Y397617D01*
X460305Y397700D01*
X460225Y397780D01*
X460142Y397857D01*
X460056Y397932D01*
X459968Y398003D01*
X459878Y398071D01*
X459785Y398136D01*
X459690Y398198D01*
X459593Y398256D01*
X459494Y398311D01*
X459393Y398362D01*
X459290Y398410D01*
X459186Y398455D01*
X459080Y398495D01*
X458973Y398532D01*
X458865Y398565D01*
X458755Y398595D01*
X458645Y398620D01*
X458534Y398642D01*
X458422Y398659D01*
X458309Y398673D01*
X458196Y398683D01*
X458083Y398689D01*
X457970Y398691D01*
X457857Y398689D01*
X457744Y398683D01*
X457631Y398673D01*
X457518Y398659D01*
X457406Y398642D01*
X457295Y398620D01*
X457185Y398595D01*
X457075Y398565D01*
X456967Y398532D01*
X456860Y398495D01*
X456860Y398494D02*
X451980Y396718D01*
X451980Y396719D02*
X451874Y396679D01*
X451770Y396634D01*
X451667Y396586D01*
X451566Y396535D01*
X451467Y396480D01*
X451370Y396422D01*
X451275Y396360D01*
X451182Y396295D01*
X451092Y396227D01*
X451004Y396156D01*
X450918Y396081D01*
X450835Y396004D01*
X450755Y395924D01*
X450678Y395841D01*
X450603Y395755D01*
X450532Y395667D01*
X450464Y395577D01*
X450399Y395484D01*
X450337Y395389D01*
X450279Y395292D01*
X450224Y395193D01*
X450173Y395092D01*
X450125Y394989D01*
X450080Y394885D01*
X450040Y394779D01*
X450003Y394672D01*
X449970Y394564D01*
X449940Y394454D01*
X449915Y394344D01*
X449893Y394233D01*
X449876Y394121D01*
X449862Y394008D01*
X449852Y393895D01*
X449846Y393782D01*
X449844Y393669D01*
X449846Y393556D01*
X449852Y393443D01*
X449862Y393330D01*
X449876Y393217D01*
X449893Y393105D01*
X449915Y392994D01*
X449940Y392884D01*
X449970Y392774D01*
X450003Y392666D01*
X450040Y392559D01*
X450041Y392559D02*
X451151Y389509D01*
X424343Y256226D02*
X422748Y255109D01*
X426471Y249792D01*
X429662Y252026D01*
X429661Y252026D02*
X429741Y252085D01*
X429819Y252147D01*
X429895Y252211D01*
X429968Y252279D01*
X430039Y252349D01*
X430106Y252422D01*
X430171Y252497D01*
X430233Y252575D01*
X430292Y252655D01*
X430348Y252737D01*
X430401Y252822D01*
X430450Y252908D01*
X430496Y252996D01*
X430539Y253086D01*
X430578Y253177D01*
X430613Y253270D01*
X430645Y253364D01*
X430674Y253460D01*
X430698Y253556D01*
X430719Y253653D01*
X430737Y253751D01*
X430750Y253850D01*
X430760Y253949D01*
X430766Y254048D01*
X430768Y254147D01*
X430766Y254247D01*
X430761Y254346D01*
X430751Y254445D01*
X430738Y254544D01*
X430722Y254642D01*
X430701Y254739D01*
X430677Y254836D01*
X430649Y254931D01*
X430617Y255025D01*
X430582Y255118D01*
X430543Y255210D01*
X430501Y255300D01*
X430455Y255388D01*
X430406Y255475D01*
X430354Y255559D01*
X430299Y255642D01*
X426576Y260959D01*
X426517Y261039D01*
X426455Y261117D01*
X426391Y261193D01*
X426323Y261266D01*
X426253Y261337D01*
X426180Y261404D01*
X426105Y261469D01*
X426027Y261531D01*
X425947Y261590D01*
X425865Y261646D01*
X425780Y261699D01*
X425694Y261748D01*
X425606Y261794D01*
X425516Y261837D01*
X425425Y261876D01*
X425332Y261911D01*
X425238Y261943D01*
X425142Y261972D01*
X425046Y261996D01*
X424949Y262017D01*
X424851Y262035D01*
X424752Y262048D01*
X424653Y262058D01*
X424554Y262064D01*
X424455Y262066D01*
X424355Y262064D01*
X424256Y262059D01*
X424157Y262050D01*
X424058Y262036D01*
X423960Y262020D01*
X423863Y261999D01*
X423766Y261975D01*
X423671Y261947D01*
X423577Y261915D01*
X423484Y261880D01*
X423392Y261841D01*
X423302Y261799D01*
X423214Y261753D01*
X423127Y261704D01*
X423043Y261652D01*
X422960Y261597D01*
X419770Y259363D01*
X415100Y256093D02*
X421801Y246522D01*
X416484Y242799D02*
X415100Y256093D01*
X409783Y252370D02*
X416484Y242799D01*
X411814Y239529D02*
X405113Y249100D01*
X402454Y247238D01*
X402454Y247239D02*
X402363Y247172D01*
X402273Y247103D01*
X402186Y247030D01*
X402102Y246954D01*
X402021Y246875D01*
X401942Y246794D01*
X401866Y246710D01*
X401793Y246623D01*
X401724Y246534D01*
X401657Y246442D01*
X401594Y246348D01*
X401534Y246252D01*
X401477Y246154D01*
X401424Y246054D01*
X401374Y245952D01*
X401328Y245848D01*
X401286Y245743D01*
X401247Y245637D01*
X401212Y245529D01*
X401181Y245420D01*
X401153Y245310D01*
X401130Y245199D01*
X401110Y245088D01*
X401094Y244976D01*
X401082Y244863D01*
X401074Y244750D01*
X401070Y244637D01*
X401070Y244523D01*
X401074Y244410D01*
X401082Y244297D01*
X401094Y244184D01*
X401110Y244072D01*
X401130Y243961D01*
X401153Y243850D01*
X401181Y243740D01*
X401212Y243631D01*
X401247Y243523D01*
X401286Y243417D01*
X401328Y243312D01*
X401374Y243208D01*
X401424Y243106D01*
X401477Y243006D01*
X401534Y242908D01*
X401594Y242812D01*
X401657Y242718D01*
X404636Y238464D01*
X404635Y238464D02*
X404702Y238373D01*
X404771Y238283D01*
X404844Y238196D01*
X404920Y238112D01*
X404999Y238031D01*
X405080Y237952D01*
X405164Y237876D01*
X405251Y237803D01*
X405341Y237734D01*
X405432Y237667D01*
X405526Y237604D01*
X405622Y237544D01*
X405720Y237487D01*
X405820Y237434D01*
X405922Y237384D01*
X406026Y237338D01*
X406131Y237296D01*
X406237Y237257D01*
X406345Y237222D01*
X406454Y237191D01*
X406564Y237163D01*
X406675Y237140D01*
X406786Y237120D01*
X406898Y237104D01*
X407011Y237092D01*
X407124Y237084D01*
X407237Y237080D01*
X407351Y237080D01*
X407464Y237084D01*
X407577Y237092D01*
X407690Y237104D01*
X407802Y237120D01*
X407913Y237140D01*
X408024Y237163D01*
X408134Y237191D01*
X408243Y237222D01*
X408351Y237257D01*
X408457Y237296D01*
X408562Y237338D01*
X408666Y237384D01*
X408768Y237434D01*
X408868Y237487D01*
X408966Y237544D01*
X409062Y237604D01*
X409156Y237667D01*
X411814Y239529D01*
X285396Y243983D02*
X283801Y245100D01*
X280078Y239783D01*
X283268Y237549D01*
X283351Y237494D01*
X283435Y237442D01*
X283522Y237393D01*
X283610Y237347D01*
X283700Y237305D01*
X283792Y237266D01*
X283885Y237231D01*
X283979Y237199D01*
X284074Y237171D01*
X284171Y237147D01*
X284268Y237126D01*
X284366Y237110D01*
X284465Y237096D01*
X284564Y237087D01*
X284663Y237082D01*
X284763Y237080D01*
X284862Y237082D01*
X284961Y237088D01*
X285060Y237098D01*
X285159Y237111D01*
X285257Y237129D01*
X285354Y237150D01*
X285450Y237174D01*
X285546Y237203D01*
X285640Y237235D01*
X285733Y237270D01*
X285824Y237309D01*
X285914Y237352D01*
X286002Y237398D01*
X286088Y237447D01*
X286173Y237500D01*
X286255Y237556D01*
X286335Y237615D01*
X286413Y237677D01*
X286488Y237742D01*
X286561Y237809D01*
X286631Y237880D01*
X286699Y237953D01*
X286763Y238029D01*
X286825Y238107D01*
X286884Y238187D01*
X290607Y243504D01*
X290662Y243587D01*
X290714Y243671D01*
X290763Y243758D01*
X290809Y243846D01*
X290851Y243936D01*
X290890Y244028D01*
X290925Y244121D01*
X290957Y244215D01*
X290985Y244310D01*
X291009Y244407D01*
X291030Y244504D01*
X291046Y244602D01*
X291060Y244701D01*
X291069Y244800D01*
X291074Y244899D01*
X291076Y244999D01*
X291074Y245098D01*
X291068Y245197D01*
X291058Y245296D01*
X291045Y245395D01*
X291027Y245493D01*
X291006Y245590D01*
X290982Y245686D01*
X290953Y245782D01*
X290921Y245876D01*
X290886Y245969D01*
X290847Y246060D01*
X290804Y246150D01*
X290758Y246238D01*
X290709Y246324D01*
X290656Y246409D01*
X290600Y246491D01*
X290541Y246571D01*
X290479Y246649D01*
X290414Y246724D01*
X290347Y246797D01*
X290276Y246867D01*
X290203Y246935D01*
X290127Y246999D01*
X290049Y247061D01*
X289969Y247120D01*
X289970Y247120D02*
X286779Y249354D01*
X282110Y252624D02*
X275408Y243053D01*
X270091Y246776D02*
X282110Y252624D01*
X276792Y256347D02*
X270091Y246776D01*
X265421Y250046D02*
X272122Y259617D01*
X269464Y261478D01*
X269464Y261479D02*
X269370Y261542D01*
X269274Y261602D01*
X269176Y261659D01*
X269076Y261712D01*
X268974Y261762D01*
X268870Y261808D01*
X268765Y261850D01*
X268659Y261889D01*
X268551Y261924D01*
X268442Y261955D01*
X268332Y261983D01*
X268221Y262006D01*
X268110Y262026D01*
X267998Y262042D01*
X267885Y262054D01*
X267772Y262062D01*
X267659Y262066D01*
X267545Y262066D01*
X267432Y262062D01*
X267319Y262054D01*
X267206Y262042D01*
X267094Y262026D01*
X266983Y262006D01*
X266872Y261983D01*
X266762Y261955D01*
X266653Y261924D01*
X266545Y261889D01*
X266439Y261850D01*
X266334Y261808D01*
X266230Y261762D01*
X266128Y261712D01*
X266028Y261659D01*
X265930Y261602D01*
X265834Y261542D01*
X265740Y261479D01*
X265649Y261412D01*
X265559Y261343D01*
X265472Y261270D01*
X265388Y261194D01*
X265307Y261115D01*
X265228Y261034D01*
X265152Y260950D01*
X265079Y260863D01*
X265010Y260774D01*
X264943Y260682D01*
X264944Y260681D02*
X261965Y256428D01*
X261902Y256334D01*
X261842Y256238D01*
X261785Y256140D01*
X261732Y256040D01*
X261682Y255938D01*
X261636Y255834D01*
X261594Y255729D01*
X261555Y255623D01*
X261520Y255515D01*
X261489Y255406D01*
X261461Y255296D01*
X261438Y255185D01*
X261418Y255074D01*
X261402Y254962D01*
X261390Y254849D01*
X261382Y254736D01*
X261378Y254623D01*
X261378Y254509D01*
X261382Y254396D01*
X261390Y254283D01*
X261402Y254170D01*
X261418Y254058D01*
X261438Y253947D01*
X261461Y253836D01*
X261489Y253726D01*
X261520Y253617D01*
X261555Y253509D01*
X261594Y253403D01*
X261636Y253298D01*
X261682Y253194D01*
X261732Y253092D01*
X261785Y252992D01*
X261842Y252894D01*
X261902Y252798D01*
X261965Y252704D01*
X262032Y252612D01*
X262101Y252523D01*
X262174Y252436D01*
X262250Y252352D01*
X262329Y252271D01*
X262410Y252192D01*
X262494Y252116D01*
X262581Y252043D01*
X262671Y251974D01*
X262762Y251907D01*
X265421Y250046D01*
X235150Y391729D02*
X235816Y393559D01*
X235150Y391729D02*
X241250Y389509D01*
X242582Y393169D01*
X242581Y393169D02*
X242614Y393263D01*
X242642Y393358D01*
X242667Y393455D01*
X242688Y393552D01*
X242706Y393650D01*
X242720Y393748D01*
X242730Y393847D01*
X242736Y393947D01*
X242738Y394046D01*
X242736Y394145D01*
X242731Y394245D01*
X242722Y394344D01*
X242709Y394442D01*
X242693Y394540D01*
X242672Y394638D01*
X242648Y394734D01*
X242620Y394830D01*
X242589Y394924D01*
X242554Y395017D01*
X242515Y395109D01*
X242473Y395199D01*
X242428Y395287D01*
X242379Y395374D01*
X242327Y395459D01*
X242272Y395541D01*
X242213Y395622D01*
X242152Y395700D01*
X242087Y395776D01*
X242020Y395849D01*
X241950Y395920D01*
X241877Y395988D01*
X241802Y396053D01*
X241725Y396115D01*
X241645Y396174D01*
X241562Y396230D01*
X241478Y396283D01*
X241392Y396332D01*
X241304Y396379D01*
X241214Y396421D01*
X241123Y396461D01*
X241030Y396496D01*
X234930Y398716D01*
X234930Y398717D02*
X234836Y398750D01*
X234741Y398778D01*
X234644Y398803D01*
X234547Y398824D01*
X234449Y398842D01*
X234351Y398856D01*
X234252Y398866D01*
X234153Y398872D01*
X234053Y398874D01*
X233954Y398872D01*
X233854Y398867D01*
X233755Y398858D01*
X233657Y398845D01*
X233558Y398829D01*
X233461Y398808D01*
X233365Y398784D01*
X233269Y398756D01*
X233175Y398725D01*
X233081Y398690D01*
X232990Y398651D01*
X232900Y398609D01*
X232811Y398564D01*
X232724Y398515D01*
X232640Y398463D01*
X232557Y398408D01*
X232476Y398349D01*
X232398Y398288D01*
X232322Y398223D01*
X232249Y398156D01*
X232179Y398086D01*
X232111Y398013D01*
X232046Y397938D01*
X231983Y397860D01*
X231924Y397780D01*
X231868Y397698D01*
X231815Y397614D01*
X231766Y397527D01*
X231720Y397439D01*
X231677Y397349D01*
X231637Y397258D01*
X231602Y397165D01*
X230270Y393505D01*
X228320Y388148D02*
X239300Y384152D01*
X237080Y378052D02*
X228320Y388148D01*
X226100Y382048D02*
X237080Y378052D01*
X235130Y372695D02*
X224151Y376691D01*
X223041Y373641D01*
X223040Y373641D02*
X223003Y373534D01*
X222970Y373426D01*
X222940Y373316D01*
X222915Y373206D01*
X222893Y373095D01*
X222876Y372983D01*
X222862Y372870D01*
X222852Y372757D01*
X222846Y372644D01*
X222844Y372531D01*
X222846Y372418D01*
X222852Y372305D01*
X222862Y372192D01*
X222876Y372079D01*
X222893Y371967D01*
X222915Y371856D01*
X222940Y371746D01*
X222970Y371636D01*
X223003Y371528D01*
X223040Y371421D01*
X223080Y371315D01*
X223125Y371211D01*
X223173Y371108D01*
X223224Y371007D01*
X223279Y370908D01*
X223337Y370811D01*
X223399Y370716D01*
X223464Y370623D01*
X223532Y370533D01*
X223603Y370445D01*
X223678Y370359D01*
X223755Y370276D01*
X223835Y370196D01*
X223918Y370119D01*
X224004Y370044D01*
X224092Y369973D01*
X224182Y369905D01*
X224275Y369840D01*
X224370Y369778D01*
X224467Y369720D01*
X224566Y369665D01*
X224667Y369614D01*
X224770Y369566D01*
X224874Y369521D01*
X224980Y369481D01*
X229860Y367705D01*
X229860Y367706D02*
X229967Y367669D01*
X230076Y367636D01*
X230185Y367606D01*
X230295Y367581D01*
X230407Y367559D01*
X230518Y367542D01*
X230631Y367528D01*
X230744Y367518D01*
X230857Y367512D01*
X230970Y367510D01*
X231083Y367512D01*
X231196Y367518D01*
X231309Y367528D01*
X231422Y367542D01*
X231534Y367559D01*
X231645Y367581D01*
X231755Y367606D01*
X231864Y367636D01*
X231973Y367669D01*
X232080Y367706D01*
X232186Y367746D01*
X232290Y367791D01*
X232393Y367838D01*
X232493Y367890D01*
X232593Y367945D01*
X232690Y368003D01*
X232785Y368065D01*
X232877Y368130D01*
X232968Y368198D01*
X233056Y368269D01*
X233141Y368344D01*
X233224Y368421D01*
X233304Y368501D01*
X233382Y368584D01*
X233456Y368669D01*
X233527Y368757D01*
X233595Y368848D01*
X233660Y368940D01*
X233722Y369035D01*
X233780Y369133D01*
X233835Y369232D01*
X233887Y369333D01*
X233934Y369435D01*
X233979Y369539D01*
X234019Y369645D01*
X234020Y369645D02*
X235130Y372695D01*
M02*
