G04 EAGLE Gerber RS-274X export*
G75*
%MOMM*%
%FSLAX34Y34*%
%LPD*%
%INSilkscreen Bottom*%
%IPPOS*%
%AMOC8*
5,1,8,0,0,1.08239X$1,22.5*%
G01*
%ADD10C,0.101600*%


D10*
X357094Y466149D02*
X355146Y466149D01*
X355146Y459658D01*
X359041Y459658D01*
X359140Y459660D01*
X359240Y459666D01*
X359339Y459675D01*
X359437Y459688D01*
X359535Y459705D01*
X359633Y459726D01*
X359729Y459751D01*
X359824Y459779D01*
X359918Y459811D01*
X360011Y459846D01*
X360103Y459885D01*
X360193Y459928D01*
X360281Y459973D01*
X360368Y460023D01*
X360452Y460075D01*
X360535Y460131D01*
X360615Y460189D01*
X360693Y460251D01*
X360768Y460316D01*
X360841Y460384D01*
X360911Y460454D01*
X360979Y460527D01*
X361044Y460602D01*
X361106Y460680D01*
X361164Y460760D01*
X361220Y460843D01*
X361272Y460927D01*
X361322Y461014D01*
X361367Y461102D01*
X361410Y461192D01*
X361449Y461284D01*
X361484Y461377D01*
X361516Y461471D01*
X361544Y461566D01*
X361569Y461662D01*
X361590Y461760D01*
X361607Y461858D01*
X361620Y461956D01*
X361629Y462055D01*
X361635Y462155D01*
X361637Y462254D01*
X361638Y462254D02*
X361638Y468746D01*
X361637Y468746D02*
X361635Y468845D01*
X361629Y468945D01*
X361620Y469044D01*
X361607Y469142D01*
X361590Y469240D01*
X361569Y469338D01*
X361544Y469434D01*
X361516Y469529D01*
X361484Y469623D01*
X361449Y469716D01*
X361410Y469808D01*
X361367Y469898D01*
X361322Y469986D01*
X361272Y470073D01*
X361220Y470157D01*
X361164Y470240D01*
X361106Y470320D01*
X361044Y470398D01*
X360979Y470473D01*
X360911Y470546D01*
X360841Y470616D01*
X360768Y470684D01*
X360693Y470749D01*
X360615Y470811D01*
X360535Y470869D01*
X360452Y470925D01*
X360368Y470977D01*
X360281Y471027D01*
X360193Y471072D01*
X360103Y471115D01*
X360011Y471154D01*
X359918Y471189D01*
X359824Y471221D01*
X359729Y471249D01*
X359633Y471274D01*
X359535Y471295D01*
X359437Y471312D01*
X359339Y471325D01*
X359240Y471334D01*
X359140Y471340D01*
X359041Y471342D01*
X355146Y471342D01*
X349446Y471342D02*
X349446Y459658D01*
X342954Y459658D02*
X349446Y471342D01*
X342954Y471342D02*
X342954Y459658D01*
X337254Y459658D02*
X337254Y471342D01*
X334008Y471342D01*
X333895Y471340D01*
X333782Y471334D01*
X333669Y471324D01*
X333556Y471310D01*
X333444Y471293D01*
X333333Y471271D01*
X333223Y471246D01*
X333113Y471216D01*
X333005Y471183D01*
X332898Y471146D01*
X332792Y471106D01*
X332688Y471061D01*
X332585Y471013D01*
X332484Y470962D01*
X332385Y470907D01*
X332288Y470849D01*
X332193Y470787D01*
X332100Y470722D01*
X332010Y470654D01*
X331922Y470583D01*
X331836Y470508D01*
X331753Y470431D01*
X331673Y470351D01*
X331596Y470268D01*
X331521Y470182D01*
X331450Y470094D01*
X331382Y470004D01*
X331317Y469911D01*
X331255Y469816D01*
X331197Y469719D01*
X331142Y469620D01*
X331091Y469519D01*
X331043Y469416D01*
X330998Y469312D01*
X330958Y469206D01*
X330921Y469099D01*
X330888Y468991D01*
X330858Y468881D01*
X330833Y468771D01*
X330811Y468660D01*
X330794Y468548D01*
X330780Y468435D01*
X330770Y468322D01*
X330764Y468209D01*
X330762Y468096D01*
X330762Y462904D01*
X330764Y462791D01*
X330770Y462678D01*
X330780Y462565D01*
X330794Y462452D01*
X330811Y462340D01*
X330833Y462229D01*
X330858Y462119D01*
X330888Y462009D01*
X330921Y461901D01*
X330958Y461794D01*
X330998Y461688D01*
X331043Y461584D01*
X331091Y461481D01*
X331142Y461380D01*
X331197Y461281D01*
X331255Y461184D01*
X331317Y461089D01*
X331382Y460996D01*
X331450Y460906D01*
X331521Y460818D01*
X331596Y460732D01*
X331673Y460649D01*
X331753Y460569D01*
X331836Y460492D01*
X331922Y460417D01*
X332010Y460346D01*
X332100Y460278D01*
X332193Y460213D01*
X332288Y460151D01*
X332385Y460093D01*
X332484Y460038D01*
X332585Y459987D01*
X332688Y459939D01*
X332792Y459894D01*
X332898Y459854D01*
X333005Y459817D01*
X333113Y459784D01*
X333223Y459754D01*
X333333Y459729D01*
X333444Y459707D01*
X333556Y459690D01*
X333669Y459676D01*
X333782Y459666D01*
X333895Y459660D01*
X334008Y459658D01*
X337254Y459658D01*
X463370Y374915D02*
X464036Y373085D01*
X463370Y374915D02*
X457270Y372695D01*
X458602Y369035D01*
X458603Y369035D02*
X458638Y368942D01*
X458678Y368851D01*
X458720Y368761D01*
X458767Y368673D01*
X458816Y368587D01*
X458869Y368503D01*
X458925Y368420D01*
X458984Y368340D01*
X459046Y368263D01*
X459111Y368188D01*
X459179Y368115D01*
X459250Y368045D01*
X459323Y367978D01*
X459399Y367913D01*
X459477Y367852D01*
X459558Y367793D01*
X459640Y367738D01*
X459725Y367686D01*
X459812Y367637D01*
X459900Y367592D01*
X459990Y367550D01*
X460082Y367511D01*
X460175Y367476D01*
X460269Y367445D01*
X460365Y367417D01*
X460461Y367393D01*
X460559Y367372D01*
X460657Y367356D01*
X460755Y367343D01*
X460854Y367334D01*
X460954Y367329D01*
X461053Y367327D01*
X461153Y367329D01*
X461252Y367335D01*
X461351Y367345D01*
X461449Y367359D01*
X461547Y367377D01*
X461644Y367398D01*
X461741Y367423D01*
X461836Y367451D01*
X461930Y367484D01*
X461930Y367483D02*
X468030Y369703D01*
X468030Y369704D02*
X468123Y369739D01*
X468214Y369779D01*
X468304Y369821D01*
X468392Y369868D01*
X468478Y369917D01*
X468562Y369970D01*
X468645Y370026D01*
X468725Y370085D01*
X468802Y370147D01*
X468877Y370212D01*
X468950Y370280D01*
X469020Y370351D01*
X469087Y370424D01*
X469152Y370500D01*
X469213Y370578D01*
X469272Y370659D01*
X469327Y370741D01*
X469379Y370826D01*
X469428Y370913D01*
X469473Y371001D01*
X469515Y371091D01*
X469554Y371183D01*
X469589Y371276D01*
X469620Y371370D01*
X469648Y371466D01*
X469672Y371562D01*
X469693Y371660D01*
X469709Y371758D01*
X469722Y371856D01*
X469731Y371955D01*
X469736Y372055D01*
X469738Y372154D01*
X469736Y372253D01*
X469730Y372353D01*
X469720Y372452D01*
X469706Y372550D01*
X469688Y372648D01*
X469667Y372745D01*
X469642Y372842D01*
X469614Y372937D01*
X469581Y373031D01*
X469582Y373031D02*
X468250Y376691D01*
X466300Y382048D02*
X455320Y378052D01*
X453100Y384152D02*
X466300Y382048D01*
X464080Y388148D02*
X453100Y384152D01*
X451151Y389509D02*
X462130Y393505D01*
X461020Y396555D01*
X460980Y396661D01*
X460935Y396765D01*
X460887Y396868D01*
X460836Y396969D01*
X460781Y397068D01*
X460723Y397165D01*
X460661Y397260D01*
X460596Y397353D01*
X460528Y397443D01*
X460457Y397531D01*
X460382Y397617D01*
X460305Y397700D01*
X460225Y397780D01*
X460142Y397857D01*
X460056Y397932D01*
X459968Y398003D01*
X459878Y398071D01*
X459785Y398136D01*
X459690Y398198D01*
X459593Y398256D01*
X459494Y398311D01*
X459393Y398362D01*
X459290Y398410D01*
X459186Y398455D01*
X459080Y398495D01*
X458973Y398532D01*
X458865Y398565D01*
X458755Y398595D01*
X458645Y398620D01*
X458534Y398642D01*
X458422Y398659D01*
X458309Y398673D01*
X458196Y398683D01*
X458083Y398689D01*
X457970Y398691D01*
X457857Y398689D01*
X457744Y398683D01*
X457631Y398673D01*
X457518Y398659D01*
X457406Y398642D01*
X457295Y398620D01*
X457185Y398595D01*
X457075Y398565D01*
X456967Y398532D01*
X456860Y398495D01*
X456860Y398494D02*
X451980Y396718D01*
X451980Y396719D02*
X451874Y396679D01*
X451770Y396634D01*
X451667Y396586D01*
X451566Y396535D01*
X451467Y396480D01*
X451370Y396422D01*
X451275Y396360D01*
X451182Y396295D01*
X451092Y396227D01*
X451004Y396156D01*
X450918Y396081D01*
X450835Y396004D01*
X450755Y395924D01*
X450678Y395841D01*
X450603Y395755D01*
X450532Y395667D01*
X450464Y395577D01*
X450399Y395484D01*
X450337Y395389D01*
X450279Y395292D01*
X450224Y395193D01*
X450173Y395092D01*
X450125Y394989D01*
X450080Y394885D01*
X450040Y394779D01*
X450003Y394672D01*
X449970Y394564D01*
X449940Y394454D01*
X449915Y394344D01*
X449893Y394233D01*
X449876Y394121D01*
X449862Y394008D01*
X449852Y393895D01*
X449846Y393782D01*
X449844Y393669D01*
X449846Y393556D01*
X449852Y393443D01*
X449862Y393330D01*
X449876Y393217D01*
X449893Y393105D01*
X449915Y392994D01*
X449940Y392884D01*
X449970Y392774D01*
X450003Y392666D01*
X450040Y392559D01*
X450041Y392559D02*
X451151Y389509D01*
X411389Y250384D02*
X409794Y249267D01*
X413517Y243950D01*
X416708Y246184D01*
X416707Y246184D02*
X416787Y246243D01*
X416865Y246305D01*
X416941Y246369D01*
X417014Y246437D01*
X417085Y246507D01*
X417152Y246580D01*
X417217Y246655D01*
X417279Y246733D01*
X417338Y246813D01*
X417394Y246895D01*
X417447Y246980D01*
X417496Y247066D01*
X417542Y247154D01*
X417585Y247244D01*
X417624Y247335D01*
X417659Y247428D01*
X417691Y247522D01*
X417720Y247618D01*
X417744Y247714D01*
X417765Y247811D01*
X417783Y247909D01*
X417796Y248008D01*
X417806Y248107D01*
X417812Y248206D01*
X417814Y248305D01*
X417812Y248405D01*
X417807Y248504D01*
X417797Y248603D01*
X417784Y248702D01*
X417768Y248800D01*
X417747Y248897D01*
X417723Y248994D01*
X417695Y249089D01*
X417663Y249183D01*
X417628Y249276D01*
X417589Y249368D01*
X417547Y249458D01*
X417501Y249546D01*
X417452Y249633D01*
X417400Y249717D01*
X417345Y249800D01*
X413622Y255117D01*
X413563Y255197D01*
X413501Y255275D01*
X413437Y255351D01*
X413369Y255424D01*
X413299Y255495D01*
X413226Y255562D01*
X413151Y255627D01*
X413073Y255689D01*
X412993Y255748D01*
X412911Y255804D01*
X412826Y255857D01*
X412740Y255906D01*
X412652Y255952D01*
X412562Y255995D01*
X412471Y256034D01*
X412378Y256069D01*
X412284Y256101D01*
X412188Y256130D01*
X412092Y256154D01*
X411995Y256175D01*
X411897Y256193D01*
X411798Y256206D01*
X411699Y256216D01*
X411600Y256222D01*
X411501Y256224D01*
X411401Y256222D01*
X411302Y256217D01*
X411203Y256208D01*
X411104Y256194D01*
X411006Y256178D01*
X410909Y256157D01*
X410812Y256133D01*
X410717Y256105D01*
X410623Y256073D01*
X410530Y256038D01*
X410438Y255999D01*
X410348Y255957D01*
X410260Y255911D01*
X410173Y255862D01*
X410089Y255810D01*
X410006Y255755D01*
X406816Y253521D01*
X402146Y250251D02*
X408847Y240680D01*
X403530Y236957D02*
X402146Y250251D01*
X396829Y246528D02*
X403530Y236957D01*
X398860Y233687D02*
X392159Y243258D01*
X389500Y241396D01*
X389500Y241397D02*
X389409Y241330D01*
X389319Y241261D01*
X389232Y241188D01*
X389148Y241112D01*
X389067Y241033D01*
X388988Y240952D01*
X388912Y240868D01*
X388839Y240781D01*
X388770Y240692D01*
X388703Y240600D01*
X388640Y240506D01*
X388580Y240410D01*
X388523Y240312D01*
X388470Y240212D01*
X388420Y240110D01*
X388374Y240006D01*
X388332Y239901D01*
X388293Y239795D01*
X388258Y239687D01*
X388227Y239578D01*
X388199Y239468D01*
X388176Y239357D01*
X388156Y239246D01*
X388140Y239134D01*
X388128Y239021D01*
X388120Y238908D01*
X388116Y238795D01*
X388116Y238681D01*
X388120Y238568D01*
X388128Y238455D01*
X388140Y238342D01*
X388156Y238230D01*
X388176Y238119D01*
X388199Y238008D01*
X388227Y237898D01*
X388258Y237789D01*
X388293Y237681D01*
X388332Y237575D01*
X388374Y237470D01*
X388420Y237366D01*
X388470Y237264D01*
X388523Y237164D01*
X388580Y237066D01*
X388640Y236970D01*
X388703Y236876D01*
X391682Y232622D01*
X391681Y232622D02*
X391748Y232531D01*
X391817Y232441D01*
X391890Y232354D01*
X391966Y232270D01*
X392045Y232189D01*
X392126Y232110D01*
X392210Y232034D01*
X392297Y231961D01*
X392387Y231892D01*
X392478Y231825D01*
X392572Y231762D01*
X392668Y231702D01*
X392766Y231645D01*
X392866Y231592D01*
X392968Y231542D01*
X393072Y231496D01*
X393177Y231454D01*
X393283Y231415D01*
X393391Y231380D01*
X393500Y231349D01*
X393610Y231321D01*
X393721Y231298D01*
X393832Y231278D01*
X393944Y231262D01*
X394057Y231250D01*
X394170Y231242D01*
X394283Y231238D01*
X394397Y231238D01*
X394510Y231242D01*
X394623Y231250D01*
X394736Y231262D01*
X394848Y231278D01*
X394959Y231298D01*
X395070Y231321D01*
X395180Y231349D01*
X395289Y231380D01*
X395397Y231415D01*
X395503Y231454D01*
X395608Y231496D01*
X395712Y231542D01*
X395814Y231592D01*
X395914Y231645D01*
X396012Y231702D01*
X396108Y231762D01*
X396202Y231825D01*
X398860Y233687D01*
X285396Y243983D02*
X283801Y245100D01*
X280078Y239783D01*
X283268Y237549D01*
X283351Y237494D01*
X283435Y237442D01*
X283522Y237393D01*
X283610Y237347D01*
X283700Y237305D01*
X283792Y237266D01*
X283885Y237231D01*
X283979Y237199D01*
X284074Y237171D01*
X284171Y237147D01*
X284268Y237126D01*
X284366Y237110D01*
X284465Y237096D01*
X284564Y237087D01*
X284663Y237082D01*
X284763Y237080D01*
X284862Y237082D01*
X284961Y237088D01*
X285060Y237098D01*
X285159Y237111D01*
X285257Y237129D01*
X285354Y237150D01*
X285450Y237174D01*
X285546Y237203D01*
X285640Y237235D01*
X285733Y237270D01*
X285824Y237309D01*
X285914Y237352D01*
X286002Y237398D01*
X286088Y237447D01*
X286173Y237500D01*
X286255Y237556D01*
X286335Y237615D01*
X286413Y237677D01*
X286488Y237742D01*
X286561Y237809D01*
X286631Y237880D01*
X286699Y237953D01*
X286763Y238029D01*
X286825Y238107D01*
X286884Y238187D01*
X290607Y243504D01*
X290662Y243587D01*
X290714Y243671D01*
X290763Y243758D01*
X290809Y243846D01*
X290851Y243936D01*
X290890Y244028D01*
X290925Y244121D01*
X290957Y244215D01*
X290985Y244310D01*
X291009Y244407D01*
X291030Y244504D01*
X291046Y244602D01*
X291060Y244701D01*
X291069Y244800D01*
X291074Y244899D01*
X291076Y244999D01*
X291074Y245098D01*
X291068Y245197D01*
X291058Y245296D01*
X291045Y245395D01*
X291027Y245493D01*
X291006Y245590D01*
X290982Y245686D01*
X290953Y245782D01*
X290921Y245876D01*
X290886Y245969D01*
X290847Y246060D01*
X290804Y246150D01*
X290758Y246238D01*
X290709Y246324D01*
X290656Y246409D01*
X290600Y246491D01*
X290541Y246571D01*
X290479Y246649D01*
X290414Y246724D01*
X290347Y246797D01*
X290276Y246867D01*
X290203Y246935D01*
X290127Y246999D01*
X290049Y247061D01*
X289969Y247120D01*
X289970Y247120D02*
X286779Y249354D01*
X282110Y252624D02*
X275408Y243053D01*
X270091Y246776D02*
X282110Y252624D01*
X276792Y256347D02*
X270091Y246776D01*
X265421Y250046D02*
X272122Y259617D01*
X269464Y261478D01*
X269464Y261479D02*
X269370Y261542D01*
X269274Y261602D01*
X269176Y261659D01*
X269076Y261712D01*
X268974Y261762D01*
X268870Y261808D01*
X268765Y261850D01*
X268659Y261889D01*
X268551Y261924D01*
X268442Y261955D01*
X268332Y261983D01*
X268221Y262006D01*
X268110Y262026D01*
X267998Y262042D01*
X267885Y262054D01*
X267772Y262062D01*
X267659Y262066D01*
X267545Y262066D01*
X267432Y262062D01*
X267319Y262054D01*
X267206Y262042D01*
X267094Y262026D01*
X266983Y262006D01*
X266872Y261983D01*
X266762Y261955D01*
X266653Y261924D01*
X266545Y261889D01*
X266439Y261850D01*
X266334Y261808D01*
X266230Y261762D01*
X266128Y261712D01*
X266028Y261659D01*
X265930Y261602D01*
X265834Y261542D01*
X265740Y261479D01*
X265649Y261412D01*
X265559Y261343D01*
X265472Y261270D01*
X265388Y261194D01*
X265307Y261115D01*
X265228Y261034D01*
X265152Y260950D01*
X265079Y260863D01*
X265010Y260774D01*
X264943Y260682D01*
X264944Y260681D02*
X261965Y256428D01*
X261902Y256334D01*
X261842Y256238D01*
X261785Y256140D01*
X261732Y256040D01*
X261682Y255938D01*
X261636Y255834D01*
X261594Y255729D01*
X261555Y255623D01*
X261520Y255515D01*
X261489Y255406D01*
X261461Y255296D01*
X261438Y255185D01*
X261418Y255074D01*
X261402Y254962D01*
X261390Y254849D01*
X261382Y254736D01*
X261378Y254623D01*
X261378Y254509D01*
X261382Y254396D01*
X261390Y254283D01*
X261402Y254170D01*
X261418Y254058D01*
X261438Y253947D01*
X261461Y253836D01*
X261489Y253726D01*
X261520Y253617D01*
X261555Y253509D01*
X261594Y253403D01*
X261636Y253298D01*
X261682Y253194D01*
X261732Y253092D01*
X261785Y252992D01*
X261842Y252894D01*
X261902Y252798D01*
X261965Y252704D01*
X262032Y252612D01*
X262101Y252523D01*
X262174Y252436D01*
X262250Y252352D01*
X262329Y252271D01*
X262410Y252192D01*
X262494Y252116D01*
X262581Y252043D01*
X262671Y251974D01*
X262762Y251907D01*
X265421Y250046D01*
X235150Y391729D02*
X235816Y393559D01*
X235150Y391729D02*
X241250Y389509D01*
X242582Y393169D01*
X242581Y393169D02*
X242614Y393263D01*
X242642Y393358D01*
X242667Y393455D01*
X242688Y393552D01*
X242706Y393650D01*
X242720Y393748D01*
X242730Y393847D01*
X242736Y393947D01*
X242738Y394046D01*
X242736Y394145D01*
X242731Y394245D01*
X242722Y394344D01*
X242709Y394442D01*
X242693Y394540D01*
X242672Y394638D01*
X242648Y394734D01*
X242620Y394830D01*
X242589Y394924D01*
X242554Y395017D01*
X242515Y395109D01*
X242473Y395199D01*
X242428Y395287D01*
X242379Y395374D01*
X242327Y395459D01*
X242272Y395541D01*
X242213Y395622D01*
X242152Y395700D01*
X242087Y395776D01*
X242020Y395849D01*
X241950Y395920D01*
X241877Y395988D01*
X241802Y396053D01*
X241725Y396115D01*
X241645Y396174D01*
X241562Y396230D01*
X241478Y396283D01*
X241392Y396332D01*
X241304Y396379D01*
X241214Y396421D01*
X241123Y396461D01*
X241030Y396496D01*
X234930Y398716D01*
X234930Y398717D02*
X234836Y398750D01*
X234741Y398778D01*
X234644Y398803D01*
X234547Y398824D01*
X234449Y398842D01*
X234351Y398856D01*
X234252Y398866D01*
X234153Y398872D01*
X234053Y398874D01*
X233954Y398872D01*
X233854Y398867D01*
X233755Y398858D01*
X233657Y398845D01*
X233558Y398829D01*
X233461Y398808D01*
X233365Y398784D01*
X233269Y398756D01*
X233175Y398725D01*
X233081Y398690D01*
X232990Y398651D01*
X232900Y398609D01*
X232811Y398564D01*
X232724Y398515D01*
X232640Y398463D01*
X232557Y398408D01*
X232476Y398349D01*
X232398Y398288D01*
X232322Y398223D01*
X232249Y398156D01*
X232179Y398086D01*
X232111Y398013D01*
X232046Y397938D01*
X231983Y397860D01*
X231924Y397780D01*
X231868Y397698D01*
X231815Y397614D01*
X231766Y397527D01*
X231720Y397439D01*
X231677Y397349D01*
X231637Y397258D01*
X231602Y397165D01*
X230270Y393505D01*
X228320Y388148D02*
X239300Y384152D01*
X237080Y378052D02*
X228320Y388148D01*
X226100Y382048D02*
X237080Y378052D01*
X235130Y372695D02*
X224151Y376691D01*
X223041Y373641D01*
X223040Y373641D02*
X223003Y373534D01*
X222970Y373426D01*
X222940Y373316D01*
X222915Y373206D01*
X222893Y373095D01*
X222876Y372983D01*
X222862Y372870D01*
X222852Y372757D01*
X222846Y372644D01*
X222844Y372531D01*
X222846Y372418D01*
X222852Y372305D01*
X222862Y372192D01*
X222876Y372079D01*
X222893Y371967D01*
X222915Y371856D01*
X222940Y371746D01*
X222970Y371636D01*
X223003Y371528D01*
X223040Y371421D01*
X223080Y371315D01*
X223125Y371211D01*
X223173Y371108D01*
X223224Y371007D01*
X223279Y370908D01*
X223337Y370811D01*
X223399Y370716D01*
X223464Y370623D01*
X223532Y370533D01*
X223603Y370445D01*
X223678Y370359D01*
X223755Y370276D01*
X223835Y370196D01*
X223918Y370119D01*
X224004Y370044D01*
X224092Y369973D01*
X224182Y369905D01*
X224275Y369840D01*
X224370Y369778D01*
X224467Y369720D01*
X224566Y369665D01*
X224667Y369614D01*
X224770Y369566D01*
X224874Y369521D01*
X224980Y369481D01*
X229860Y367705D01*
X229860Y367706D02*
X229967Y367669D01*
X230076Y367636D01*
X230185Y367606D01*
X230295Y367581D01*
X230407Y367559D01*
X230518Y367542D01*
X230631Y367528D01*
X230744Y367518D01*
X230857Y367512D01*
X230970Y367510D01*
X231083Y367512D01*
X231196Y367518D01*
X231309Y367528D01*
X231422Y367542D01*
X231534Y367559D01*
X231645Y367581D01*
X231755Y367606D01*
X231864Y367636D01*
X231973Y367669D01*
X232080Y367706D01*
X232186Y367746D01*
X232290Y367791D01*
X232393Y367838D01*
X232493Y367890D01*
X232593Y367945D01*
X232690Y368003D01*
X232785Y368065D01*
X232877Y368130D01*
X232968Y368198D01*
X233056Y368269D01*
X233141Y368344D01*
X233224Y368421D01*
X233304Y368501D01*
X233382Y368584D01*
X233456Y368669D01*
X233527Y368757D01*
X233595Y368848D01*
X233660Y368940D01*
X233722Y369035D01*
X233780Y369133D01*
X233835Y369232D01*
X233887Y369333D01*
X233934Y369435D01*
X233979Y369539D01*
X234019Y369645D01*
X234020Y369645D02*
X235130Y372695D01*
X425061Y274588D02*
X436745Y274588D01*
X436745Y277834D01*
X436746Y277834D02*
X436744Y277947D01*
X436738Y278060D01*
X436728Y278173D01*
X436714Y278286D01*
X436697Y278398D01*
X436675Y278509D01*
X436650Y278619D01*
X436620Y278729D01*
X436587Y278837D01*
X436550Y278944D01*
X436510Y279050D01*
X436465Y279154D01*
X436417Y279257D01*
X436366Y279358D01*
X436311Y279457D01*
X436253Y279554D01*
X436191Y279649D01*
X436126Y279742D01*
X436058Y279832D01*
X435987Y279920D01*
X435912Y280006D01*
X435835Y280089D01*
X435755Y280169D01*
X435672Y280246D01*
X435586Y280321D01*
X435498Y280392D01*
X435408Y280460D01*
X435315Y280525D01*
X435220Y280587D01*
X435123Y280645D01*
X435024Y280700D01*
X434923Y280751D01*
X434820Y280799D01*
X434716Y280844D01*
X434610Y280884D01*
X434503Y280921D01*
X434395Y280954D01*
X434285Y280984D01*
X434175Y281009D01*
X434064Y281031D01*
X433952Y281048D01*
X433839Y281062D01*
X433726Y281072D01*
X433613Y281078D01*
X433500Y281080D01*
X433387Y281078D01*
X433274Y281072D01*
X433161Y281062D01*
X433048Y281048D01*
X432936Y281031D01*
X432825Y281009D01*
X432715Y280984D01*
X432605Y280954D01*
X432497Y280921D01*
X432390Y280884D01*
X432284Y280844D01*
X432180Y280799D01*
X432077Y280751D01*
X431976Y280700D01*
X431877Y280645D01*
X431780Y280587D01*
X431685Y280525D01*
X431592Y280460D01*
X431502Y280392D01*
X431414Y280321D01*
X431328Y280246D01*
X431245Y280169D01*
X431165Y280089D01*
X431088Y280006D01*
X431013Y279920D01*
X430942Y279832D01*
X430874Y279742D01*
X430809Y279649D01*
X430747Y279554D01*
X430689Y279457D01*
X430634Y279358D01*
X430583Y279257D01*
X430535Y279154D01*
X430490Y279050D01*
X430450Y278944D01*
X430413Y278837D01*
X430380Y278729D01*
X430350Y278619D01*
X430325Y278509D01*
X430303Y278398D01*
X430286Y278286D01*
X430272Y278173D01*
X430262Y278060D01*
X430256Y277947D01*
X430254Y277834D01*
X430254Y274588D01*
X430903Y285468D02*
X431133Y285471D01*
X431363Y285479D01*
X431592Y285493D01*
X431821Y285512D01*
X432050Y285537D01*
X432277Y285567D01*
X432505Y285602D01*
X432731Y285643D01*
X432956Y285689D01*
X433180Y285741D01*
X433402Y285798D01*
X433624Y285860D01*
X433843Y285928D01*
X434061Y286001D01*
X434278Y286079D01*
X434492Y286162D01*
X434704Y286250D01*
X434914Y286343D01*
X435122Y286442D01*
X435123Y286441D02*
X435213Y286474D01*
X435302Y286510D01*
X435390Y286550D01*
X435475Y286594D01*
X435559Y286641D01*
X435641Y286691D01*
X435721Y286745D01*
X435798Y286801D01*
X435874Y286861D01*
X435947Y286924D01*
X436017Y286989D01*
X436085Y287058D01*
X436149Y287129D01*
X436211Y287202D01*
X436270Y287278D01*
X436326Y287356D01*
X436379Y287437D01*
X436428Y287519D01*
X436474Y287603D01*
X436517Y287690D01*
X436556Y287777D01*
X436592Y287867D01*
X436624Y287957D01*
X436652Y288049D01*
X436677Y288142D01*
X436698Y288236D01*
X436715Y288330D01*
X436729Y288425D01*
X436738Y288521D01*
X436744Y288617D01*
X436746Y288713D01*
X436744Y288809D01*
X436738Y288905D01*
X436729Y289001D01*
X436715Y289096D01*
X436698Y289190D01*
X436677Y289284D01*
X436652Y289377D01*
X436624Y289469D01*
X436592Y289559D01*
X436556Y289649D01*
X436517Y289736D01*
X436474Y289823D01*
X436428Y289907D01*
X436379Y289989D01*
X436326Y290070D01*
X436270Y290148D01*
X436211Y290224D01*
X436149Y290297D01*
X436085Y290368D01*
X436017Y290437D01*
X435947Y290502D01*
X435874Y290565D01*
X435798Y290625D01*
X435721Y290681D01*
X435641Y290735D01*
X435559Y290785D01*
X435475Y290832D01*
X435390Y290876D01*
X435302Y290916D01*
X435213Y290952D01*
X435123Y290985D01*
X435122Y290985D02*
X434915Y291084D01*
X434705Y291177D01*
X434492Y291265D01*
X434278Y291348D01*
X434062Y291426D01*
X433844Y291499D01*
X433624Y291567D01*
X433403Y291629D01*
X433180Y291686D01*
X432956Y291738D01*
X432731Y291784D01*
X432505Y291825D01*
X432278Y291860D01*
X432050Y291890D01*
X431821Y291915D01*
X431592Y291934D01*
X431363Y291948D01*
X431133Y291956D01*
X430903Y291959D01*
X430903Y285468D02*
X430673Y285471D01*
X430443Y285479D01*
X430214Y285493D01*
X429985Y285512D01*
X429756Y285537D01*
X429528Y285567D01*
X429301Y285602D01*
X429075Y285643D01*
X428850Y285689D01*
X428626Y285741D01*
X428403Y285798D01*
X428182Y285860D01*
X427962Y285928D01*
X427744Y286001D01*
X427528Y286079D01*
X427314Y286162D01*
X427102Y286250D01*
X426891Y286343D01*
X426684Y286442D01*
X426684Y286441D02*
X426594Y286474D01*
X426505Y286510D01*
X426417Y286551D01*
X426332Y286594D01*
X426248Y286641D01*
X426166Y286691D01*
X426086Y286745D01*
X426009Y286801D01*
X425933Y286861D01*
X425860Y286924D01*
X425790Y286989D01*
X425722Y287058D01*
X425658Y287129D01*
X425596Y287202D01*
X425537Y287278D01*
X425481Y287356D01*
X425428Y287437D01*
X425379Y287519D01*
X425333Y287603D01*
X425290Y287690D01*
X425251Y287777D01*
X425215Y287867D01*
X425183Y287957D01*
X425155Y288049D01*
X425130Y288142D01*
X425109Y288236D01*
X425092Y288330D01*
X425078Y288425D01*
X425069Y288521D01*
X425063Y288617D01*
X425061Y288713D01*
X426684Y290985D02*
X426891Y291084D01*
X427102Y291177D01*
X427314Y291265D01*
X427528Y291348D01*
X427744Y291426D01*
X427962Y291499D01*
X428182Y291567D01*
X428403Y291629D01*
X428626Y291686D01*
X428850Y291738D01*
X429075Y291784D01*
X429301Y291825D01*
X429528Y291860D01*
X429756Y291890D01*
X429985Y291915D01*
X430214Y291934D01*
X430443Y291948D01*
X430673Y291956D01*
X430903Y291959D01*
X426684Y290985D02*
X426594Y290952D01*
X426505Y290916D01*
X426417Y290876D01*
X426332Y290832D01*
X426248Y290785D01*
X426166Y290735D01*
X426086Y290681D01*
X426009Y290625D01*
X425933Y290565D01*
X425860Y290502D01*
X425790Y290437D01*
X425722Y290368D01*
X425658Y290297D01*
X425596Y290224D01*
X425537Y290148D01*
X425481Y290070D01*
X425428Y289989D01*
X425379Y289907D01*
X425333Y289823D01*
X425290Y289736D01*
X425251Y289649D01*
X425215Y289559D01*
X425183Y289469D01*
X425155Y289377D01*
X425130Y289284D01*
X425109Y289190D01*
X425092Y289096D01*
X425078Y289001D01*
X425069Y288905D01*
X425063Y288809D01*
X425061Y288713D01*
X427658Y286117D02*
X434149Y291310D01*
X430903Y296898D02*
X431133Y296901D01*
X431363Y296909D01*
X431592Y296923D01*
X431821Y296942D01*
X432050Y296967D01*
X432277Y296997D01*
X432505Y297032D01*
X432731Y297073D01*
X432956Y297119D01*
X433180Y297171D01*
X433402Y297228D01*
X433624Y297290D01*
X433843Y297358D01*
X434061Y297431D01*
X434278Y297509D01*
X434492Y297592D01*
X434704Y297680D01*
X434914Y297773D01*
X435122Y297872D01*
X435123Y297871D02*
X435213Y297904D01*
X435302Y297940D01*
X435390Y297980D01*
X435475Y298024D01*
X435559Y298071D01*
X435641Y298121D01*
X435721Y298175D01*
X435798Y298231D01*
X435874Y298291D01*
X435947Y298354D01*
X436017Y298419D01*
X436085Y298488D01*
X436149Y298559D01*
X436211Y298632D01*
X436270Y298708D01*
X436326Y298786D01*
X436379Y298867D01*
X436428Y298949D01*
X436474Y299033D01*
X436517Y299120D01*
X436556Y299207D01*
X436592Y299297D01*
X436624Y299387D01*
X436652Y299479D01*
X436677Y299572D01*
X436698Y299666D01*
X436715Y299760D01*
X436729Y299855D01*
X436738Y299951D01*
X436744Y300047D01*
X436746Y300143D01*
X436744Y300239D01*
X436738Y300335D01*
X436729Y300431D01*
X436715Y300526D01*
X436698Y300620D01*
X436677Y300714D01*
X436652Y300807D01*
X436624Y300899D01*
X436592Y300989D01*
X436556Y301079D01*
X436517Y301166D01*
X436474Y301253D01*
X436428Y301337D01*
X436379Y301419D01*
X436326Y301500D01*
X436270Y301578D01*
X436211Y301654D01*
X436149Y301727D01*
X436085Y301798D01*
X436017Y301867D01*
X435947Y301932D01*
X435874Y301995D01*
X435798Y302055D01*
X435721Y302111D01*
X435641Y302165D01*
X435559Y302215D01*
X435475Y302262D01*
X435390Y302306D01*
X435302Y302346D01*
X435213Y302382D01*
X435123Y302415D01*
X435122Y302415D02*
X434915Y302514D01*
X434705Y302607D01*
X434492Y302695D01*
X434278Y302778D01*
X434062Y302856D01*
X433844Y302929D01*
X433624Y302997D01*
X433403Y303059D01*
X433180Y303116D01*
X432956Y303168D01*
X432731Y303214D01*
X432505Y303255D01*
X432278Y303290D01*
X432050Y303320D01*
X431821Y303345D01*
X431592Y303364D01*
X431363Y303378D01*
X431133Y303386D01*
X430903Y303389D01*
X430903Y296897D02*
X430673Y296900D01*
X430443Y296908D01*
X430214Y296922D01*
X429985Y296941D01*
X429756Y296966D01*
X429528Y296996D01*
X429301Y297031D01*
X429075Y297072D01*
X428850Y297118D01*
X428626Y297170D01*
X428403Y297227D01*
X428182Y297289D01*
X427962Y297357D01*
X427744Y297430D01*
X427528Y297508D01*
X427314Y297591D01*
X427102Y297679D01*
X426891Y297772D01*
X426684Y297871D01*
X426594Y297904D01*
X426505Y297940D01*
X426417Y297981D01*
X426332Y298024D01*
X426248Y298071D01*
X426166Y298121D01*
X426086Y298175D01*
X426009Y298231D01*
X425933Y298291D01*
X425860Y298354D01*
X425790Y298419D01*
X425722Y298488D01*
X425658Y298559D01*
X425596Y298632D01*
X425537Y298708D01*
X425481Y298786D01*
X425428Y298867D01*
X425379Y298949D01*
X425333Y299033D01*
X425290Y299120D01*
X425251Y299207D01*
X425215Y299297D01*
X425183Y299387D01*
X425155Y299479D01*
X425130Y299572D01*
X425109Y299666D01*
X425092Y299760D01*
X425078Y299855D01*
X425069Y299951D01*
X425063Y300047D01*
X425061Y300143D01*
X426684Y302415D02*
X426891Y302514D01*
X427102Y302607D01*
X427314Y302695D01*
X427528Y302778D01*
X427744Y302856D01*
X427962Y302929D01*
X428182Y302997D01*
X428403Y303059D01*
X428626Y303116D01*
X428850Y303168D01*
X429075Y303214D01*
X429301Y303255D01*
X429528Y303290D01*
X429756Y303320D01*
X429985Y303345D01*
X430214Y303364D01*
X430443Y303378D01*
X430673Y303386D01*
X430903Y303389D01*
X426684Y302415D02*
X426594Y302382D01*
X426505Y302346D01*
X426417Y302306D01*
X426332Y302262D01*
X426248Y302215D01*
X426166Y302165D01*
X426086Y302111D01*
X426009Y302055D01*
X425933Y301995D01*
X425860Y301932D01*
X425790Y301867D01*
X425722Y301798D01*
X425658Y301727D01*
X425596Y301654D01*
X425537Y301578D01*
X425481Y301500D01*
X425428Y301419D01*
X425379Y301337D01*
X425333Y301253D01*
X425290Y301166D01*
X425251Y301079D01*
X425215Y300989D01*
X425183Y300899D01*
X425155Y300807D01*
X425130Y300714D01*
X425109Y300620D01*
X425092Y300526D01*
X425078Y300431D01*
X425069Y300335D01*
X425063Y300239D01*
X425061Y300143D01*
X427658Y297547D02*
X434149Y302740D01*
X436745Y308782D02*
X425061Y308782D01*
X436745Y308782D02*
X436745Y312028D01*
X436746Y312028D02*
X436744Y312141D01*
X436738Y312254D01*
X436728Y312367D01*
X436714Y312480D01*
X436697Y312592D01*
X436675Y312703D01*
X436650Y312813D01*
X436620Y312923D01*
X436587Y313031D01*
X436550Y313138D01*
X436510Y313244D01*
X436465Y313348D01*
X436417Y313451D01*
X436366Y313552D01*
X436311Y313651D01*
X436253Y313748D01*
X436191Y313843D01*
X436126Y313936D01*
X436058Y314026D01*
X435987Y314114D01*
X435912Y314200D01*
X435835Y314283D01*
X435755Y314363D01*
X435672Y314440D01*
X435586Y314515D01*
X435498Y314586D01*
X435408Y314654D01*
X435315Y314719D01*
X435220Y314781D01*
X435123Y314839D01*
X435024Y314894D01*
X434923Y314945D01*
X434820Y314993D01*
X434716Y315038D01*
X434610Y315078D01*
X434503Y315115D01*
X434395Y315148D01*
X434285Y315178D01*
X434175Y315203D01*
X434064Y315225D01*
X433952Y315242D01*
X433839Y315256D01*
X433726Y315266D01*
X433613Y315272D01*
X433500Y315274D01*
X433387Y315272D01*
X433274Y315266D01*
X433161Y315256D01*
X433048Y315242D01*
X432936Y315225D01*
X432825Y315203D01*
X432715Y315178D01*
X432605Y315148D01*
X432497Y315115D01*
X432390Y315078D01*
X432284Y315038D01*
X432180Y314993D01*
X432077Y314945D01*
X431976Y314894D01*
X431877Y314839D01*
X431780Y314781D01*
X431685Y314719D01*
X431592Y314654D01*
X431502Y314586D01*
X431414Y314515D01*
X431328Y314440D01*
X431245Y314363D01*
X431165Y314283D01*
X431088Y314200D01*
X431013Y314114D01*
X430942Y314026D01*
X430874Y313936D01*
X430809Y313843D01*
X430747Y313748D01*
X430689Y313651D01*
X430634Y313552D01*
X430583Y313451D01*
X430535Y313348D01*
X430490Y313244D01*
X430450Y313138D01*
X430413Y313031D01*
X430380Y312923D01*
X430350Y312813D01*
X430325Y312703D01*
X430303Y312592D01*
X430286Y312480D01*
X430272Y312367D01*
X430262Y312254D01*
X430256Y312141D01*
X430254Y312028D01*
X430254Y308782D01*
X430254Y312677D02*
X425061Y315273D01*
X428307Y320138D02*
X428420Y320140D01*
X428533Y320146D01*
X428646Y320156D01*
X428759Y320170D01*
X428871Y320187D01*
X428982Y320209D01*
X429092Y320234D01*
X429202Y320264D01*
X429310Y320297D01*
X429417Y320334D01*
X429523Y320374D01*
X429627Y320419D01*
X429730Y320467D01*
X429831Y320518D01*
X429930Y320573D01*
X430027Y320631D01*
X430122Y320693D01*
X430215Y320758D01*
X430305Y320826D01*
X430393Y320897D01*
X430479Y320972D01*
X430562Y321049D01*
X430642Y321129D01*
X430719Y321212D01*
X430794Y321298D01*
X430865Y321386D01*
X430933Y321476D01*
X430998Y321569D01*
X431060Y321664D01*
X431118Y321761D01*
X431173Y321860D01*
X431224Y321961D01*
X431272Y322064D01*
X431317Y322168D01*
X431357Y322274D01*
X431394Y322381D01*
X431427Y322489D01*
X431457Y322599D01*
X431482Y322709D01*
X431504Y322820D01*
X431521Y322932D01*
X431535Y323045D01*
X431545Y323158D01*
X431551Y323271D01*
X431553Y323384D01*
X431551Y323497D01*
X431545Y323610D01*
X431535Y323723D01*
X431521Y323836D01*
X431504Y323948D01*
X431482Y324059D01*
X431457Y324169D01*
X431427Y324279D01*
X431394Y324387D01*
X431357Y324494D01*
X431317Y324600D01*
X431272Y324704D01*
X431224Y324807D01*
X431173Y324908D01*
X431118Y325007D01*
X431060Y325104D01*
X430998Y325199D01*
X430933Y325292D01*
X430865Y325382D01*
X430794Y325470D01*
X430719Y325556D01*
X430642Y325639D01*
X430562Y325719D01*
X430479Y325796D01*
X430393Y325871D01*
X430305Y325942D01*
X430215Y326010D01*
X430122Y326075D01*
X430027Y326137D01*
X429930Y326195D01*
X429831Y326250D01*
X429730Y326301D01*
X429627Y326349D01*
X429523Y326394D01*
X429417Y326434D01*
X429310Y326471D01*
X429202Y326504D01*
X429092Y326534D01*
X428982Y326559D01*
X428871Y326581D01*
X428759Y326598D01*
X428646Y326612D01*
X428533Y326622D01*
X428420Y326628D01*
X428307Y326630D01*
X428194Y326628D01*
X428081Y326622D01*
X427968Y326612D01*
X427855Y326598D01*
X427743Y326581D01*
X427632Y326559D01*
X427522Y326534D01*
X427412Y326504D01*
X427304Y326471D01*
X427197Y326434D01*
X427091Y326394D01*
X426987Y326349D01*
X426884Y326301D01*
X426783Y326250D01*
X426684Y326195D01*
X426587Y326137D01*
X426492Y326075D01*
X426399Y326010D01*
X426309Y325942D01*
X426221Y325871D01*
X426135Y325796D01*
X426052Y325719D01*
X425972Y325639D01*
X425895Y325556D01*
X425820Y325470D01*
X425749Y325382D01*
X425681Y325292D01*
X425616Y325199D01*
X425554Y325104D01*
X425496Y325007D01*
X425441Y324908D01*
X425390Y324807D01*
X425342Y324704D01*
X425297Y324600D01*
X425257Y324494D01*
X425220Y324387D01*
X425187Y324279D01*
X425157Y324169D01*
X425132Y324059D01*
X425110Y323948D01*
X425093Y323836D01*
X425079Y323723D01*
X425069Y323610D01*
X425063Y323497D01*
X425061Y323384D01*
X425063Y323271D01*
X425069Y323158D01*
X425079Y323045D01*
X425093Y322932D01*
X425110Y322820D01*
X425132Y322709D01*
X425157Y322599D01*
X425187Y322489D01*
X425220Y322381D01*
X425257Y322274D01*
X425297Y322168D01*
X425342Y322064D01*
X425390Y321961D01*
X425441Y321860D01*
X425496Y321761D01*
X425554Y321664D01*
X425616Y321569D01*
X425681Y321476D01*
X425749Y321386D01*
X425820Y321298D01*
X425895Y321212D01*
X425972Y321129D01*
X426052Y321049D01*
X426135Y320972D01*
X426221Y320897D01*
X426309Y320826D01*
X426399Y320758D01*
X426492Y320693D01*
X426587Y320631D01*
X426684Y320573D01*
X426783Y320518D01*
X426884Y320467D01*
X426987Y320419D01*
X427091Y320374D01*
X427197Y320334D01*
X427304Y320297D01*
X427412Y320264D01*
X427522Y320234D01*
X427632Y320209D01*
X427743Y320187D01*
X427855Y320170D01*
X427968Y320156D01*
X428081Y320146D01*
X428194Y320140D01*
X428307Y320138D01*
X434149Y320788D02*
X434250Y320790D01*
X434350Y320796D01*
X434450Y320806D01*
X434550Y320819D01*
X434649Y320837D01*
X434748Y320858D01*
X434845Y320883D01*
X434942Y320912D01*
X435037Y320945D01*
X435131Y320981D01*
X435223Y321021D01*
X435314Y321064D01*
X435403Y321111D01*
X435490Y321161D01*
X435576Y321215D01*
X435659Y321272D01*
X435739Y321332D01*
X435818Y321395D01*
X435894Y321462D01*
X435967Y321531D01*
X436037Y321603D01*
X436105Y321677D01*
X436170Y321754D01*
X436231Y321834D01*
X436290Y321916D01*
X436345Y322000D01*
X436397Y322086D01*
X436446Y322174D01*
X436491Y322264D01*
X436533Y322356D01*
X436571Y322449D01*
X436605Y322544D01*
X436636Y322639D01*
X436663Y322736D01*
X436686Y322834D01*
X436706Y322933D01*
X436721Y323033D01*
X436733Y323133D01*
X436741Y323233D01*
X436745Y323334D01*
X436745Y323434D01*
X436741Y323535D01*
X436733Y323635D01*
X436721Y323735D01*
X436706Y323835D01*
X436686Y323934D01*
X436663Y324032D01*
X436636Y324129D01*
X436605Y324224D01*
X436571Y324319D01*
X436533Y324412D01*
X436491Y324504D01*
X436446Y324594D01*
X436397Y324682D01*
X436345Y324768D01*
X436290Y324852D01*
X436231Y324934D01*
X436170Y325014D01*
X436105Y325091D01*
X436037Y325165D01*
X435967Y325237D01*
X435894Y325306D01*
X435818Y325373D01*
X435739Y325436D01*
X435659Y325496D01*
X435576Y325553D01*
X435490Y325607D01*
X435403Y325657D01*
X435314Y325704D01*
X435223Y325747D01*
X435131Y325787D01*
X435037Y325823D01*
X434942Y325856D01*
X434845Y325885D01*
X434748Y325910D01*
X434649Y325931D01*
X434550Y325949D01*
X434450Y325962D01*
X434350Y325972D01*
X434250Y325978D01*
X434149Y325980D01*
X434048Y325978D01*
X433948Y325972D01*
X433848Y325962D01*
X433748Y325949D01*
X433649Y325931D01*
X433550Y325910D01*
X433453Y325885D01*
X433356Y325856D01*
X433261Y325823D01*
X433167Y325787D01*
X433075Y325747D01*
X432984Y325704D01*
X432895Y325657D01*
X432808Y325607D01*
X432722Y325553D01*
X432639Y325496D01*
X432559Y325436D01*
X432480Y325373D01*
X432404Y325306D01*
X432331Y325237D01*
X432261Y325165D01*
X432193Y325091D01*
X432128Y325014D01*
X432067Y324934D01*
X432008Y324852D01*
X431953Y324768D01*
X431901Y324682D01*
X431852Y324594D01*
X431807Y324504D01*
X431765Y324412D01*
X431727Y324319D01*
X431693Y324224D01*
X431662Y324129D01*
X431635Y324032D01*
X431612Y323934D01*
X431592Y323835D01*
X431577Y323735D01*
X431565Y323635D01*
X431557Y323535D01*
X431553Y323434D01*
X431553Y323334D01*
X431557Y323233D01*
X431565Y323133D01*
X431577Y323033D01*
X431592Y322933D01*
X431612Y322834D01*
X431635Y322736D01*
X431662Y322639D01*
X431693Y322544D01*
X431727Y322449D01*
X431765Y322356D01*
X431807Y322264D01*
X431852Y322174D01*
X431901Y322086D01*
X431953Y322000D01*
X432008Y321916D01*
X432067Y321834D01*
X432128Y321754D01*
X432193Y321677D01*
X432261Y321603D01*
X432331Y321531D01*
X432404Y321462D01*
X432480Y321395D01*
X432559Y321332D01*
X432639Y321272D01*
X432722Y321215D01*
X432808Y321161D01*
X432895Y321111D01*
X432984Y321064D01*
X433075Y321021D01*
X433167Y320981D01*
X433261Y320945D01*
X433356Y320912D01*
X433453Y320883D01*
X433550Y320858D01*
X433649Y320837D01*
X433748Y320819D01*
X433848Y320806D01*
X433948Y320796D01*
X434048Y320790D01*
X434149Y320788D01*
X430903Y331569D02*
X431133Y331572D01*
X431363Y331580D01*
X431592Y331594D01*
X431821Y331613D01*
X432050Y331638D01*
X432277Y331668D01*
X432505Y331703D01*
X432731Y331744D01*
X432956Y331790D01*
X433180Y331842D01*
X433402Y331899D01*
X433624Y331961D01*
X433843Y332029D01*
X434061Y332102D01*
X434278Y332180D01*
X434492Y332263D01*
X434704Y332351D01*
X434914Y332444D01*
X435122Y332543D01*
X435123Y332542D02*
X435213Y332575D01*
X435302Y332611D01*
X435390Y332651D01*
X435475Y332695D01*
X435559Y332742D01*
X435641Y332792D01*
X435721Y332846D01*
X435798Y332902D01*
X435874Y332962D01*
X435947Y333025D01*
X436017Y333090D01*
X436085Y333159D01*
X436149Y333230D01*
X436211Y333303D01*
X436270Y333379D01*
X436326Y333457D01*
X436379Y333538D01*
X436428Y333620D01*
X436474Y333704D01*
X436517Y333791D01*
X436556Y333878D01*
X436592Y333968D01*
X436624Y334058D01*
X436652Y334150D01*
X436677Y334243D01*
X436698Y334337D01*
X436715Y334431D01*
X436729Y334526D01*
X436738Y334622D01*
X436744Y334718D01*
X436746Y334814D01*
X436744Y334910D01*
X436738Y335006D01*
X436729Y335102D01*
X436715Y335197D01*
X436698Y335291D01*
X436677Y335385D01*
X436652Y335478D01*
X436624Y335570D01*
X436592Y335660D01*
X436556Y335750D01*
X436517Y335837D01*
X436474Y335924D01*
X436428Y336008D01*
X436379Y336090D01*
X436326Y336171D01*
X436270Y336249D01*
X436211Y336325D01*
X436149Y336398D01*
X436085Y336469D01*
X436017Y336538D01*
X435947Y336603D01*
X435874Y336666D01*
X435798Y336726D01*
X435721Y336782D01*
X435641Y336836D01*
X435559Y336886D01*
X435475Y336933D01*
X435390Y336977D01*
X435302Y337017D01*
X435213Y337053D01*
X435123Y337086D01*
X435122Y337086D02*
X434915Y337185D01*
X434705Y337278D01*
X434492Y337366D01*
X434278Y337449D01*
X434062Y337527D01*
X433844Y337600D01*
X433624Y337668D01*
X433403Y337730D01*
X433180Y337787D01*
X432956Y337839D01*
X432731Y337885D01*
X432505Y337926D01*
X432278Y337961D01*
X432050Y337991D01*
X431821Y338016D01*
X431592Y338035D01*
X431363Y338049D01*
X431133Y338057D01*
X430903Y338060D01*
X430903Y331568D02*
X430673Y331571D01*
X430443Y331579D01*
X430214Y331593D01*
X429985Y331612D01*
X429756Y331637D01*
X429528Y331667D01*
X429301Y331702D01*
X429075Y331743D01*
X428850Y331789D01*
X428626Y331841D01*
X428403Y331898D01*
X428182Y331960D01*
X427962Y332028D01*
X427744Y332101D01*
X427528Y332179D01*
X427314Y332262D01*
X427102Y332350D01*
X426891Y332443D01*
X426684Y332542D01*
X426594Y332575D01*
X426505Y332611D01*
X426417Y332652D01*
X426332Y332695D01*
X426248Y332742D01*
X426166Y332792D01*
X426086Y332846D01*
X426009Y332902D01*
X425933Y332962D01*
X425860Y333025D01*
X425790Y333090D01*
X425722Y333159D01*
X425658Y333230D01*
X425596Y333303D01*
X425537Y333379D01*
X425481Y333457D01*
X425428Y333538D01*
X425379Y333620D01*
X425333Y333704D01*
X425290Y333791D01*
X425251Y333878D01*
X425215Y333968D01*
X425183Y334058D01*
X425155Y334150D01*
X425130Y334243D01*
X425109Y334337D01*
X425092Y334431D01*
X425078Y334526D01*
X425069Y334622D01*
X425063Y334718D01*
X425061Y334814D01*
X426684Y337086D02*
X426891Y337185D01*
X427102Y337278D01*
X427314Y337366D01*
X427528Y337449D01*
X427744Y337527D01*
X427962Y337600D01*
X428182Y337668D01*
X428403Y337730D01*
X428626Y337787D01*
X428850Y337839D01*
X429075Y337885D01*
X429301Y337926D01*
X429528Y337961D01*
X429756Y337991D01*
X429985Y338016D01*
X430214Y338035D01*
X430443Y338049D01*
X430673Y338057D01*
X430903Y338060D01*
X426684Y337086D02*
X426594Y337053D01*
X426505Y337017D01*
X426417Y336977D01*
X426332Y336933D01*
X426248Y336886D01*
X426166Y336836D01*
X426086Y336782D01*
X426009Y336726D01*
X425933Y336666D01*
X425860Y336603D01*
X425790Y336538D01*
X425722Y336469D01*
X425658Y336398D01*
X425596Y336325D01*
X425537Y336249D01*
X425481Y336171D01*
X425428Y336090D01*
X425379Y336008D01*
X425333Y335924D01*
X425290Y335837D01*
X425251Y335750D01*
X425215Y335660D01*
X425183Y335570D01*
X425155Y335478D01*
X425130Y335385D01*
X425109Y335291D01*
X425092Y335197D01*
X425078Y335102D01*
X425069Y335006D01*
X425063Y334910D01*
X425061Y334814D01*
X427658Y332218D02*
X434149Y337411D01*
M02*
